<svg width="19" height="25" viewBox="0 0 19 25" fill="none" xmlns="http://www.w3.org/2000/svg">
<path fill-rule="evenodd" clip-rule="evenodd" d="M12.9322 3.99113C13.747 2.93488 14.2963 1.46374 14.146 0C12.9717 0.0500005 11.5511 0.838941 10.7091 1.89394C9.95306 2.83018 9.29305 4.32616 9.47049 5.76116C10.7803 5.8699 12.1173 5.04861 12.9322 3.99113ZM15.8695 13.2814C15.9022 17.0651 18.9661 18.3238 19 18.34C18.9751 18.4288 18.5106 20.1335 17.3861 21.896C16.4131 23.4185 15.4038 24.9348 13.8137 24.9673C12.2518 24.9985 11.7489 23.9748 9.9621 23.9748C8.17645 23.9748 7.61815 24.9347 6.1399 24.9984C4.60515 25.0597 3.43543 23.3512 2.45558 21.8337C0.450674 18.73 -1.08069 13.0627 0.976201 9.23776C1.99787 7.33901 3.82307 6.13479 5.80537 6.10479C7.31188 6.07354 8.73475 7.19123 9.65583 7.19123C10.5769 7.19123 12.3061 5.84748 14.1234 6.04498C14.884 6.07873 17.02 6.37363 18.3908 8.52486C18.2801 8.59861 15.8423 10.1189 15.8695 13.2814Z" fill="white"/>
</svg>
