<svg width="19" height="19" viewBox="0 0 19 19" fill="none" xmlns="http://www.w3.org/2000/svg">
<path d="M8 6.5V3.5H4.5V5.5L5.5 7.5L6.5 9.5L7.5 11.5L9 12.5H12.5H14.5H17.5V10.5H16.5C14 11.5 11 11.5 8.5 8L8 6.5Z" fill="#00A046"/>
<path d="M0 1.5H3.5V3.5H4.5M4.5 3.5H8V6.5L8.5 8C11 11.5 14 11.5 16.5 10.5H17.5V12.5H14.5H12.5H9L7.5 11.5L6.5 9.5L5.5 7.5L4.5 5.5V3.5ZM6.5 17.5H7.5M8.5 17.5H7.5M7.5 17.5V16.5V18.5M15.5 16.5V17.5M15.5 18.5V17.5M15.5 17.5H14.5H16.5" stroke="#00A046"/>
<circle cx="14" cy="5" r="5" fill="#00A046"/>
<path d="M11.5 4.5L13.5 6.5L16.5 3.5" stroke="white"/>
</svg>
