<svg width="21" height="23" viewBox="0 0 21 23" fill="none" xmlns="http://www.w3.org/2000/svg">
<path d="M0.555396 22.6006L11.6309 11.3404L0.737801 0.265625C0.303218 0.547274 0 1.03355 0 1.6236V21.3796C0 21.8831 0.220704 22.3109 0.555396 22.6006Z" fill="url(#paint0_linear_1356_908)"/>
<path d="M20.1675 10.0857C21.2778 10.7034 21.2778 12.2981 20.1675 12.9157L15.688 15.4078L11.6309 11.3394L15.4812 7.47852L20.1675 10.0857Z" fill="url(#paint1_linear_1356_908)"/>
<path d="M15.6885 15.4062L11.6312 11.3379L0.555664 22.5981C1.04271 23.0197 1.77116 23.1488 2.41207 22.7922L15.6885 15.4062Z" fill="url(#paint2_linear_1356_908)"/>
<path d="M0.737305 0.264195L11.6304 11.3389L15.4808 7.47806L2.41125 0.207137C1.84617 -0.107235 1.21304 -0.0441163 0.737305 0.264195Z" fill="url(#paint3_linear_1356_908)"/>
<defs>
<linearGradient id="paint0_linear_1356_908" x1="7.59239" y1="6.96686" x2="-0.0208357" y2="14.5592" gradientUnits="userSpaceOnUse">
<stop stop-color="#00C3FF"/>
<stop offset="1" stop-color="#1BE2FA"/>
</linearGradient>
<linearGradient id="paint1_linear_1356_908" x1="11.6309" y1="11.3395" x2="21.6463" y2="11.3395" gradientUnits="userSpaceOnUse">
<stop stop-color="#FFCE00"/>
<stop offset="1" stop-color="#FFEA00"/>
</linearGradient>
<linearGradient id="paint2_linear_1356_908" x1="0.323393" y1="23.9726" x2="13.7598" y2="13.3176" gradientUnits="userSpaceOnUse">
<stop stop-color="#DE2453"/>
<stop offset="1" stop-color="#FE3944"/>
</linearGradient>
<linearGradient id="paint3_linear_1356_908" x1="0.968728" y1="-0.971883" x2="13.7582" y2="9.36082" gradientUnits="userSpaceOnUse">
<stop stop-color="#11D574"/>
<stop offset="1" stop-color="#01F176"/>
</linearGradient>
</defs>
</svg>
