<svg width="302" height="63" viewBox="0 0 302 63" fill="none" xmlns="http://www.w3.org/2000/svg">
<path d="M37.0157 8.35216L300.394 1.0003L293.903 38.4289L37.9928 45.2128L37.0157 8.35216Z" fill="#F8FF00"/>
<path d="M257.002 9.50819C266.4 14.6004 271.542 22.0987 265.875 28.9387C259.824 36.2414 245.943 40.7766 231.954 39.738C218.488 38.7383 209.742 32.1086 207.461 24.602C205.151 17.0008 209.032 8.55708 221.339 4.80735C233.455 1.11601 247.374 4.29147 257.002 9.50819Z" fill="#FFCC18"/>
<path d="M64.2078 8.16772C67.1684 9.15626 66.7714 13.1756 69.8445 13.9614C73.7809 14.9679 78.4102 11.5279 82.2159 12.7724C85.3228 13.7884 85.9658 17.0097 86.6958 19.4718C87.407 21.8706 87.8573 24.5771 86.3755 26.8016C84.8302 29.1215 79.7358 29.4084 78.4723 31.8172C77.1119 34.4106 80.9771 37.4593 79.4508 40.0033C78.1036 42.2489 74.3508 43.3219 71.1651 43.9968C68.0398 44.6589 64.6839 44.3464 61.5456 43.7965C58.6941 43.2968 56.662 41.2346 53.7534 40.9458C50.0858 40.5816 44.6168 44.297 42.7823 41.9333C40.4389 38.9137 47.9784 35.2319 46.7087 31.8687C45.8001 29.4618 39.1197 30.8418 37.7363 28.5671C36.5731 26.6545 40.3586 24.8215 41.1892 22.7929C41.9736 20.8769 40.6664 18.41 42.5011 16.9293C44.4309 15.3716 48.4078 16.5097 50.6241 15.1778C53.0949 13.6928 52.8314 10.4991 55.4414 9.15223C57.8996 7.88363 61.5134 7.26806 64.2078 8.16772Z" fill="#FFCC18"/>
<path d="M285.682 1.81907C287.135 2.16868 287.53 5.73021 288.804 6.97548C289.971 8.11468 291.644 7.20673 292.68 8.65461C293.694 10.0711 293.81 12.5593 294.269 14.6086C294.718 16.6145 295.374 18.5732 295.375 20.6929C295.376 22.8058 294.717 24.6955 294.275 26.6573C293.834 28.6121 293.487 30.6356 292.754 32.322C291.992 34.0728 291.169 36.0635 289.912 36.6828C288.626 37.3171 287.251 35.3757 285.917 35.6925C284.486 36.0322 283.405 39.3001 282.013 38.5591C280.597 37.8056 280.787 33.9236 279.634 32.3487C278.55 30.8697 276.563 31.8521 275.73 29.9818C274.921 28.1647 275.575 25.5782 275.629 23.3556C275.675 21.4596 275.924 19.6493 276.026 17.7618C276.134 15.7536 275.636 13.4884 276.253 11.7722C276.869 10.0572 278.299 9.75538 279.302 8.64824C280.254 7.59617 281.103 6.38287 282.064 5.35347C283.25 4.08468 284.262 1.47725 285.682 1.81907Z" fill="#FFCC18"/>
<path d="M189.14 4.34876C192.156 4.37512 195.247 4.75693 197.836 6.53933C200.672 8.4917 203.301 11.2569 204.364 14.8291C205.43 18.4133 204.631 22.3438 203.602 25.9253C202.638 29.2795 200.916 32.253 198.662 34.667C196.515 36.967 193.803 38.2737 191.022 39.3987C188.164 40.5551 185.269 41.3557 182.229 41.3151C178.672 41.2675 174.597 41.8091 171.902 39.1432C169.208 36.4786 169.39 31.7403 168.56 27.7949C167.791 24.1372 166.359 20.4395 167.208 16.8179C168.047 13.2432 170.4 10.2523 173.139 8.27426C175.614 6.48716 178.768 7.10163 181.637 6.39777C184.195 5.77013 186.519 4.32586 189.14 4.34876Z" fill="#FFCC18"/>
<path d="M142.038 6.96041C147.675 8.25032 147.215 11.2652 151.613 13.0156C154.352 14.1055 158.316 14.8944 162.581 15.1357C173.346 15.7447 188.625 12.6763 195.324 15.4884C200.6 17.7029 188.238 21.0933 182.048 23.3072C176.847 25.1675 166.082 24.8761 162.723 27.1492C159.568 29.2846 167.236 31.5196 166.481 33.8429C165.582 36.6062 165.312 40.3346 157.981 41.732C150.92 43.0781 143.592 39.9193 135.807 39.6901C129.495 39.5043 121.427 41.9112 116.836 40.5208C110.967 38.7435 119.732 33.5616 112.321 32.5779C101.301 31.1148 87.5763 36.6483 76.5689 35.1752C69.3482 34.2089 69.0019 29.7246 73.2056 27.3431C78.8906 24.1226 91.5824 23.2935 101.025 21.3207C105.179 20.4528 111.599 20.3878 113.635 18.8964C116.267 16.9691 111.064 14.8128 112.685 12.7825C114.525 10.4774 117.295 7.80029 123.47 6.57555C129.059 5.4669 136.997 5.80692 142.038 6.96041Z" fill="#FFCC18"/>
<path d="M63.3228 1.52548L123.249 4.6661C126.622 6.91875 129.321 8.12257 132.021 8.25157C134.721 8.38058 137.338 7.4309 140.536 5.57206L198.958 8.63382L197.161 42.9194L138.08 39.8231C134.98 37.6946 132.475 36.5283 129.928 36.3941C127.379 36.2598 124.876 37.1631 121.789 38.9694L61.5259 35.8111L63.3228 1.52548Z" fill="#90FF4D" stroke="black"/>
<path d="M74.9921 29.5613C73.5611 29.5113 72.2953 29.2209 71.1945 28.69C70.1004 28.1529 69.2459 27.4387 68.631 26.5474C68.0228 25.6499 67.729 24.6291 67.7498 23.4849L71.9277 23.6308C71.9365 24.1108 72.0783 24.5379 72.353 24.9121C72.6344 25.28 73.0144 25.5715 73.4929 25.7865C73.9715 26.0015 74.5143 26.1196 75.1211 26.1408C75.7536 26.1629 76.3164 26.0706 76.8097 25.864C77.303 25.6573 77.694 25.3608 77.9825 24.9743C78.271 24.5878 78.4243 24.1359 78.4424 23.6185C78.4607 23.0946 78.3299 22.6264 78.0501 22.2136C77.7769 21.7948 77.3728 21.4608 76.8379 21.2119C76.3093 20.9632 75.6745 20.8259 74.9335 20.8L73.1033 20.7361L73.2097 17.689L75.0399 17.7529C75.6659 17.7747 76.2223 17.6854 76.709 17.485C77.2021 17.2847 77.5895 16.9976 77.8711 16.6237C78.1531 16.2434 78.303 15.7945 78.3211 15.2771C78.3383 14.7852 78.2352 14.3499 78.0117 13.9711C77.7949 13.5862 77.4794 13.281 77.0651 13.0554C76.6573 12.8301 76.1755 12.7078 75.6197 12.6884C75.0575 12.6687 74.5397 12.753 74.0662 12.9411C73.593 13.1229 73.2094 13.3941 72.9153 13.7548C72.6213 14.1155 72.456 14.5446 72.4195 15.0422L68.4428 14.9034C68.5015 13.7733 68.8589 12.788 69.515 11.9475C70.1712 11.107 71.038 10.4625 72.1154 10.014C73.1994 9.55936 74.4121 9.35547 75.7536 9.40232C77.1079 9.44961 78.2843 9.73694 79.2829 10.2643C80.2814 10.7917 81.0471 11.4836 81.5801 12.34C82.1196 13.1904 82.3681 14.1328 82.3256 15.1675C82.2936 16.2665 81.9198 17.1713 81.2043 17.8818C80.4951 18.5926 79.5876 19.0278 78.482 19.1874L78.4766 19.3408C79.9139 19.5764 80.9951 20.1163 81.7204 20.9603C82.4522 21.7981 82.7937 22.827 82.7447 24.0469C82.712 25.1651 82.3547 26.1472 81.6728 26.9932C80.9973 27.8394 80.0822 28.4919 78.9277 28.9504C77.7733 29.409 76.4614 29.6126 74.9921 29.5613ZM85.6497 29.6649L86.335 10.0405L90.4841 10.1853L90.2014 18.2823L98.6241 18.5765L98.9069 10.4795L103.046 10.624L102.361 30.2484L98.2216 30.1039L98.5047 21.9973L90.0819 21.7032L89.7988 29.8098L85.6497 29.6649ZM106.467 10.7435L110.607 10.888L110.176 23.23L110.339 23.2356L119.25 11.1899L122.882 11.3167L122.196 30.9411L118.047 30.7962L118.479 18.4447L118.335 18.4397L109.375 30.4934L105.782 30.3679L106.467 10.7435ZM141.258 11.9584L140.573 31.5828L136.548 31.4423L137.233 11.8179L141.258 11.9584ZM124.695 31.0283L131.208 20.8944L125.639 11.413L130.746 11.5913L134.872 19.8231L143.161 20.1125L147.736 12.1846L152.824 12.3623L146.751 21.4084L152.426 31.9967L147.472 31.8237L143.592 23.9652L134.134 23.6349L129.611 31.2L124.695 31.0283ZM166.773 32.4977L160.76 23.9123L159.342 23.8628L159.05 32.228L154.9 32.0832L155.586 12.4587L159.735 12.6036L159.461 20.4419L160.295 20.471L167.084 12.8603L172.249 13.0406L164.275 21.8764L171.919 32.6774L166.773 32.4977ZM174.69 13.1259L178.83 13.2704L178.399 25.6124L178.562 25.618L187.473 13.5723L191.105 13.6991L190.419 33.3235L186.27 33.1786L186.702 20.8271L186.558 20.8221L177.598 32.8758L174.005 32.7503L174.69 13.1259Z" fill="black"/>
<path d="M209.5 23L217 18L219 13L227 11L232 6H241L247 2H251L255 4L261.5 3H265L269.5 7H278L276 11.5L283.5 15.5L278 20.5L282 25L274 29L273.5 35L265 36L258 42.5H249L241.5 46L235 43.5L226 45.5L223 41H214V35L208 32.5L212.5 27L209.5 23Z" fill="#FF5C97" stroke="black" stroke-width="2" stroke-linejoin="round"/>
<path d="M226.054 27.5925L226.49 29.4817L219.892 31.0049L219.456 29.1157L226.054 27.5925ZM236.917 34.131C236.251 34.2745 235.569 34.3044 234.871 34.2206C234.178 34.1357 233.507 33.8824 232.859 33.4606C232.21 33.0389 231.623 32.4066 231.097 31.5637C230.575 30.7197 230.157 29.6123 229.84 28.2414C229.54 26.9432 229.403 25.7606 229.427 24.6937C229.456 23.6258 229.635 22.6889 229.964 21.8833C230.292 21.0728 230.761 20.4059 231.37 19.8826C231.979 19.3594 232.714 18.9982 233.576 18.7992C234.463 18.5945 235.29 18.5872 236.059 18.7771C236.827 18.9671 237.495 19.3205 238.064 19.8373C238.637 20.353 239.072 20.9898 239.37 21.7477L237.153 22.2593C236.86 21.6739 236.445 21.2365 235.909 20.947C235.373 20.6575 234.746 20.5956 234.029 20.7611C232.939 21.0127 232.199 21.6837 231.808 22.7741C231.421 23.8633 231.421 25.2538 231.806 26.9456L231.915 26.9204C232.075 26.4397 232.307 26.0085 232.612 25.6269C232.92 25.2393 233.288 24.9119 233.717 24.6447C234.148 24.3715 234.624 24.1751 235.142 24.0554C236.004 23.8564 236.833 23.887 237.628 24.1474C238.426 24.4019 239.119 24.8492 239.705 25.4893C240.292 26.1294 240.695 26.9242 240.914 27.8737C241.133 28.8231 241.116 29.7327 240.863 30.6025C240.614 31.4711 240.155 32.2202 239.484 32.8496C238.811 33.4742 237.956 33.9014 236.917 34.131ZM236.474 32.2434C237.045 32.1115 237.524 31.853 237.909 31.468C238.295 31.0831 238.564 30.623 238.716 30.0879C238.868 29.5528 238.876 28.9922 238.741 28.406C238.609 27.8344 238.36 27.3433 237.995 26.9327C237.635 26.5209 237.2 26.2285 236.69 26.0552C236.186 25.8809 235.65 25.8591 235.083 25.99C234.652 26.0895 234.272 26.2641 233.941 26.5138C233.616 26.7624 233.349 27.0639 233.14 27.4183C232.931 27.7727 232.79 28.1573 232.718 28.572C232.649 28.9808 232.662 29.3935 232.758 29.8101C232.887 30.3672 233.135 30.8535 233.501 31.2689C233.872 31.6832 234.316 31.9837 234.834 32.1704C235.355 32.3511 235.902 32.3754 236.474 32.2434ZM250.739 30.9858C249.59 31.246 248.539 31.1697 247.587 30.7569C246.634 30.3441 245.81 29.6134 245.114 28.5649C244.418 27.5164 243.883 26.1831 243.509 24.5652C243.137 22.9521 243.034 21.5241 243.201 20.2814C243.373 19.0375 243.797 18.0213 244.472 17.2327C245.152 16.443 246.061 15.9168 247.2 15.654C248.338 15.3911 249.384 15.4686 250.338 15.8862C251.29 16.299 252.114 17.0272 252.809 18.0709C253.508 19.1086 254.043 20.4341 254.416 22.0472C254.791 23.67 254.895 25.1052 254.729 26.3528C254.562 27.5955 254.141 28.6136 253.467 29.407C252.792 30.1956 251.883 30.7218 250.739 30.9858ZM250.291 29.0457C251.299 28.8131 251.973 28.1396 252.312 27.0254C252.657 25.9101 252.615 24.4223 252.185 22.5622C251.9 21.3269 251.528 20.3132 251.07 19.521C250.615 18.7229 250.095 18.1593 249.508 17.8303C248.926 17.4954 248.303 17.4045 247.639 17.5577C246.637 17.7892 245.963 18.4651 245.62 19.5852C245.276 20.7054 245.316 22.1937 245.74 24.0502C246.026 25.2903 246.397 26.3094 246.851 27.1075C247.31 27.8997 247.83 28.4609 248.411 28.791C248.991 29.1162 249.618 29.2011 250.291 29.0457ZM266.652 24.1129L266.47 23.3282C266.341 22.7663 266.338 22.2259 266.464 21.7072C266.592 21.1825 266.85 20.7277 267.235 20.3427C267.625 19.9518 268.142 19.682 268.786 19.5332C269.445 19.3811 270.029 19.3941 270.54 19.5722C271.05 19.7503 271.474 20.048 271.81 20.4653C272.151 20.8815 272.386 21.3705 272.516 21.9325L272.697 22.7172C272.827 23.2791 272.83 23.8219 272.706 24.3455C272.581 24.8642 272.326 25.3184 271.941 25.7083C271.56 26.0921 271.045 26.359 270.396 26.5088C269.742 26.6598 269.158 26.6468 268.642 26.4699C268.126 26.2881 267.698 25.9915 267.358 25.5801C267.017 25.1639 266.781 24.6749 266.652 24.1129ZM268.164 22.9373L268.345 23.7221C268.441 24.1387 268.627 24.4936 268.904 24.7868C269.181 25.0801 269.567 25.1696 270.061 25.0556C270.55 24.9426 270.852 24.6942 270.968 24.3104C271.083 23.9266 271.093 23.5264 270.997 23.1098L270.816 22.325C270.72 21.9084 270.538 21.5524 270.271 21.2569C270.008 20.9603 269.625 20.8702 269.121 20.9865C268.637 21.0983 268.332 21.3473 268.207 21.7333C268.082 22.1194 268.067 22.5207 268.164 22.9373ZM257.201 17.3248L257.02 16.54C256.89 15.9781 256.888 15.4353 257.012 14.9118C257.14 14.3871 257.398 13.9323 257.783 13.5473C258.174 13.1612 258.691 12.8938 259.336 12.745C259.994 12.5929 260.579 12.6059 261.09 12.784C261.6 12.9621 262.023 13.2598 262.36 13.6771C262.696 14.0944 262.929 14.584 263.058 15.146L263.24 15.9307C263.369 16.4926 263.372 17.0354 263.248 17.559C263.128 18.0766 262.875 18.5303 262.491 18.9201C262.11 19.3039 261.595 19.5708 260.946 19.7207C260.287 19.8727 259.7 19.8603 259.185 19.6834C258.673 19.5004 258.247 19.2033 257.907 18.792C257.566 18.3758 257.331 17.8867 257.201 17.3248ZM258.72 16.1475L258.902 16.9322C258.998 17.3488 259.182 17.7043 259.454 17.9987C259.731 18.2919 260.116 18.3815 260.61 18.2674C261.095 18.1556 261.395 17.9077 261.51 17.5239C261.631 17.139 261.643 16.7382 261.547 16.3216L261.365 15.5368C261.269 15.1202 261.087 14.7642 260.82 14.4687C260.553 14.1732 260.17 14.0831 259.671 14.1983C259.187 14.3101 258.882 14.5591 258.757 14.9451C258.636 15.3301 258.624 15.7309 258.72 16.1475ZM260.502 28.4717L267.297 11.2284L269.034 10.8275L262.239 28.0708L260.502 28.4717Z" fill="black"/>
<path d="M218.402 27.2495L218.015 25.8047L218.272 25.7358C218.322 25.6578 218.358 25.5708 218.381 25.475C218.405 25.3788 218.418 25.2689 218.418 25.1451C218.421 25.0211 218.412 24.8793 218.393 24.7197C218.373 24.5588 218.345 24.3766 218.308 24.1733L218.091 22.9675L220.239 22.3918L220.944 25.02L221.429 24.8898L221.817 26.3346L221.216 26.4956L220.971 25.5839L218.767 26.1745L219.011 27.0862L218.402 27.2495ZM218.931 25.5593L220.343 25.181L219.78 23.0797L218.784 23.3466L218.893 24.0167C218.95 24.3572 218.987 24.6559 219.005 24.913C219.022 25.1688 218.997 25.3842 218.931 25.5593ZM223.754 24.9066C223.458 24.986 223.181 24.9874 222.924 24.9107C222.666 24.8341 222.444 24.69 222.256 24.4785C222.069 24.267 221.931 23.998 221.844 23.6714C221.756 23.3435 221.74 23.0404 221.797 22.7621C221.853 22.4838 221.973 22.2471 222.158 22.0521C222.342 21.857 222.583 21.7198 222.879 21.6404C223.175 21.561 223.452 21.5596 223.71 21.6363C223.967 21.7129 224.189 21.8577 224.377 22.0705C224.565 22.2834 224.703 22.5538 224.791 22.8817C224.879 23.2083 224.894 23.51 224.837 23.787C224.781 24.0639 224.66 24.2999 224.476 24.4949C224.291 24.69 224.051 24.8272 223.754 24.9066ZM223.618 24.3895C223.81 24.338 223.955 24.2446 224.055 24.1092C224.154 23.9739 224.211 23.8137 224.226 23.6288C224.242 23.4435 224.223 23.2493 224.169 23.0462C224.115 22.8445 224.034 22.6676 223.927 22.5154C223.821 22.3614 223.692 22.2499 223.538 22.1808C223.384 22.1117 223.211 22.1029 223.019 22.1544C222.825 22.2062 222.679 22.3007 222.579 22.4378C222.48 22.5745 222.423 22.7362 222.407 22.9229C222.391 23.1078 222.411 23.3011 222.465 23.5028C222.519 23.7059 222.599 23.8837 222.705 24.0363C222.812 24.1885 222.942 24.2985 223.095 24.3662C223.25 24.4335 223.424 24.4413 223.618 24.3895Z" fill="black"/>
<path d="M49.5 25C49.5 38.531 38.531 49.5 25 49.5C11.469 49.5 0.5 38.531 0.5 25C0.5 11.469 11.469 0.5 25 0.5C38.531 0.5 49.5 11.469 49.5 25Z" fill="#05BC52" stroke="black"/>
<path d="M6.5 26.5V29.5C6.5 29.5 7.56689 32.3184 8.5 34C9.78864 36.3223 12.5 39.5 12.5 39.5L17.1889 43.7626L21.5 40L25.5 38L28.5 37.5H34.7353L37 34L41 23.5L41.5 19.5C23.6834 31.1033 11.6491 29.0039 6.5 26.5Z" fill="black"/>
<path d="M17.1889 43.7626L12.5 39.5C12.5 39.5 9.78864 36.3223 8.5 34C7.56689 32.3184 6.5 29.5 6.5 29.5V26.5C11.6491 29.0039 23.6834 31.1033 41.5 19.5L41 23.5L37 34L34.7353 37.5M17.1889 43.7626L18 44.5L23 46.5H26.5L31.5 42.5L34.7353 37.5M17.1889 43.7626L21.5 40L25.5 38L28.5 37.5H34.7353" stroke="black" stroke-linejoin="round"/>
<path d="M27 14.5L19.5 20.5L26.5 16.5L29 16H31L31.5 17.5L32.5 18.5L33.5 18V15.5L32 14H28.5L27 14.5Z" fill="black" stroke="black" stroke-width="0.5" stroke-linejoin="round"/>
<path d="M13.5 3.5C18.3 7.5 19 7.66667 19 7.5C17.4 2.7 16.6667 2 16.5 2L13.5 3.5Z" fill="black"/>
<path d="M23.5 11C27.5 7 29.8333 6 30.5 6H33C36.6 10.4 37.1667 11.8333 37 12L32 9H28L23.5 11Z" fill="black"/>
<path d="M13.5 3.5C18.3 7.5 19 7.66667 19 7.5C17.4 2.7 16.6667 2 16.5 2L13.5 3.5Z" stroke="black" stroke-linejoin="round"/>
<path d="M23.5 11C27.5 7 29.8333 6 30.5 6H33C36.6 10.4 37.1667 11.8333 37 12L32 9H28L23.5 11Z" stroke="black" stroke-linejoin="round"/>
<path d="M11.2953 23.2845C12.3817 23.4761 13.4528 22.8217 14.3047 21.7387C15.1638 20.6464 15.847 19.066 16.1659 17.2574C16.4848 15.4488 16.3833 13.7301 15.9496 12.4098C15.5196 11.1008 14.7368 10.1195 13.6504 9.92797C12.564 9.73641 11.4928 10.3908 10.641 11.4738C9.78188 12.5661 9.09871 14.1465 8.77981 15.9551C8.46091 17.7636 8.56235 19.4824 8.99609 20.8027C9.42612 22.1117 10.2089 23.0929 11.2953 23.2845Z" stroke="black" stroke-width="0.5"/>
<g filter="url(#filter0_d_1208_1095)">
<ellipse cx="13.6578" cy="16.415" rx="1.35104" ry="2.5" transform="rotate(11 13.6578 16.415)" fill="black"/>
</g>
<path d="M147.348 61.4609V57.6974H148.019C148.248 57.5052 148.462 57.2318 148.661 56.8771C148.859 56.5225 149.028 56.0436 149.168 55.4403C149.307 54.8371 149.403 54.0632 149.456 53.1186L149.695 48.8182H155.974V57.6974H157.127V61.446H155.656V59H148.82V61.4609H147.348ZM149.829 57.6974H154.502V50.1406H151.087L150.928 53.1186C150.884 53.8378 150.813 54.4841 150.714 55.0575C150.618 55.6309 150.493 56.138 150.341 56.5788C150.192 57.0163 150.021 57.3892 149.829 57.6974ZM162.047 59.1541C161.331 59.1541 160.707 58.9901 160.173 58.6619C159.639 58.3338 159.225 57.8748 158.93 57.2848C158.635 56.6948 158.488 56.0054 158.488 55.2166C158.488 54.4245 158.635 53.7318 158.93 53.1385C159.225 52.5452 159.639 52.0845 160.173 51.7564C160.707 51.4283 161.331 51.2642 162.047 51.2642C162.763 51.2642 163.388 51.4283 163.922 51.7564C164.455 52.0845 164.87 52.5452 165.165 53.1385C165.459 53.7318 165.607 54.4245 165.607 55.2166C165.607 56.0054 165.459 56.6948 165.165 57.2848C164.87 57.8748 164.455 58.3338 163.922 58.6619C163.388 58.9901 162.763 59.1541 162.047 59.1541ZM162.052 57.9062C162.516 57.9062 162.901 57.7836 163.206 57.5384C163.511 57.2931 163.736 56.9666 163.882 56.5589C164.031 56.1513 164.106 55.7022 164.106 55.2116C164.106 54.7244 164.031 54.277 163.882 53.8693C163.736 53.4583 163.511 53.1286 163.206 52.88C162.901 52.6314 162.516 52.5071 162.052 52.5071C161.585 52.5071 161.197 52.6314 160.889 52.88C160.584 53.1286 160.357 53.4583 160.208 53.8693C160.062 54.277 159.989 54.7244 159.989 55.2116C159.989 55.7022 160.062 56.1513 160.208 56.5589C160.357 56.9666 160.584 57.2931 160.889 57.5384C161.197 57.7836 161.585 57.9062 162.052 57.9062ZM171.251 51.3636H172.708V57.7124H175.348V51.3636H176.805V57.7124H179.445V51.3636H180.901V59H171.251V51.3636ZM183.026 59V51.3636H184.513V54.5653H185.229L187.749 51.3636H189.589L186.63 55.0774L189.623 59H187.779L185.477 55.9474H184.513V59H183.026ZM190.918 59V51.3636H192.405V59H190.918ZM191.669 50.1854C191.41 50.1854 191.188 50.0992 191.003 49.9268C190.82 49.7512 190.729 49.5424 190.729 49.3004C190.729 49.0552 190.82 48.8464 191.003 48.674C191.188 48.4983 191.41 48.4105 191.669 48.4105C191.927 48.4105 192.148 48.4983 192.33 48.674C192.516 48.8464 192.608 49.0552 192.608 49.3004C192.608 49.5424 192.516 49.7512 192.33 49.9268C192.148 50.0992 191.927 50.1854 191.669 50.1854ZM193.943 59L193.938 57.7124H194.211C194.423 57.7124 194.601 57.6676 194.743 57.5781C194.889 57.4853 195.008 57.3295 195.101 57.1108C195.194 56.892 195.265 56.5904 195.315 56.206C195.365 55.8182 195.401 55.331 195.424 54.7443L195.559 51.3636H200.888V59H199.431V52.6463H196.936L196.816 55.2415C196.787 55.8712 196.722 56.4214 196.622 56.892C196.526 57.3627 196.386 57.7554 196.2 58.0703C196.014 58.3819 195.776 58.6155 195.484 58.7713C195.192 58.9238 194.838 59 194.42 59H193.943ZM204.129 53.9886H206.346C207.281 53.9886 208 54.2206 208.504 54.6847C209.008 55.1487 209.26 55.7469 209.26 56.4794C209.26 56.9567 209.147 57.3859 208.922 57.767C208.696 58.1482 208.367 58.4498 207.932 58.6719C207.498 58.8906 206.97 59 206.346 59H203.011V51.3636H204.467V57.7173H206.346C206.774 57.7173 207.125 57.6063 207.4 57.3842C207.676 57.1589 207.813 56.8722 207.813 56.5241C207.813 56.1562 207.676 55.8563 207.4 55.6243C207.125 55.389 206.774 55.2713 206.346 55.2713H204.129V53.9886ZM216.242 54.5405V55.8281H212.106V54.5405H216.242ZM212.523 51.3636V59H211.067V51.3636H212.523ZM217.281 51.3636V59H215.829V51.3636H217.281ZM222.626 59.1541C221.91 59.1541 221.286 58.9901 220.752 58.6619C220.218 58.3338 219.804 57.8748 219.509 57.2848C219.214 56.6948 219.067 56.0054 219.067 55.2166C219.067 54.4245 219.214 53.7318 219.509 53.1385C219.804 52.5452 220.218 52.0845 220.752 51.7564C221.286 51.4283 221.91 51.2642 222.626 51.2642C223.342 51.2642 223.967 51.4283 224.501 51.7564C225.034 52.0845 225.449 52.5452 225.743 53.1385C226.038 53.7318 226.186 54.4245 226.186 55.2166C226.186 56.0054 226.038 56.6948 225.743 57.2848C225.449 57.8748 225.034 58.3338 224.501 58.6619C223.967 58.9901 223.342 59.1541 222.626 59.1541ZM222.631 57.9062C223.095 57.9062 223.48 57.7836 223.785 57.5384C224.09 57.2931 224.315 56.9666 224.461 56.5589C224.61 56.1513 224.685 55.7022 224.685 55.2116C224.685 54.7244 224.61 54.277 224.461 53.8693C224.315 53.4583 224.09 53.1286 223.785 52.88C223.48 52.6314 223.095 52.5071 222.631 52.5071C222.164 52.5071 221.776 52.6314 221.468 52.88C221.163 53.1286 220.936 53.4583 220.787 53.8693C220.641 54.277 220.568 54.7244 220.568 55.2116C220.568 55.7022 220.641 56.1513 220.787 56.5589C220.936 56.9666 221.163 57.2931 221.468 57.5384C221.776 57.7836 222.164 57.9062 222.631 57.9062ZM232.867 51.3636V52.6463H229.452V59H227.985V51.3636H232.867ZM237.44 59.1541C236.724 59.1541 236.099 58.9901 235.565 58.6619C235.032 58.3338 234.617 57.8748 234.322 57.2848C234.027 56.6948 233.88 56.0054 233.88 55.2166C233.88 54.4245 234.027 53.7318 234.322 53.1385C234.617 52.5452 235.032 52.0845 235.565 51.7564C236.099 51.4283 236.724 51.2642 237.44 51.2642C238.155 51.2642 238.78 51.4283 239.314 51.7564C239.847 52.0845 240.262 52.5452 240.557 53.1385C240.852 53.7318 240.999 54.4245 240.999 55.2166C240.999 56.0054 240.852 56.6948 240.557 57.2848C240.262 57.8748 239.847 58.3338 239.314 58.6619C238.78 58.9901 238.155 59.1541 237.44 59.1541ZM237.444 57.9062C237.908 57.9062 238.293 57.7836 238.598 57.5384C238.903 57.2931 239.128 56.9666 239.274 56.5589C239.423 56.1513 239.498 55.7022 239.498 55.2116C239.498 54.7244 239.423 54.277 239.274 53.8693C239.128 53.4583 238.903 53.1286 238.598 52.88C238.293 52.6314 237.908 52.5071 237.444 52.5071C236.977 52.5071 236.589 52.6314 236.281 52.88C235.976 53.1286 235.749 53.4583 235.6 53.8693C235.454 54.277 235.381 54.7244 235.381 55.2116C235.381 55.7022 235.454 56.1513 235.6 56.5589C235.749 56.9666 235.976 57.2931 236.281 57.5384C236.589 57.7836 236.977 57.9062 237.444 57.9062ZM249.86 59.1541C249.121 59.1541 248.485 58.9867 247.951 58.652C247.421 58.3139 247.013 57.8482 246.728 57.255C246.443 56.6617 246.3 55.9822 246.3 55.2166C246.3 54.4411 246.446 53.7566 246.738 53.1634C247.03 52.5668 247.441 52.1011 247.971 51.7663C248.501 51.4316 249.126 51.2642 249.845 51.2642C250.425 51.2642 250.942 51.3719 251.396 51.5874C251.85 51.7995 252.217 52.0978 252.495 52.4822C252.777 52.8667 252.944 53.3158 252.997 53.8295H251.55C251.471 53.4716 251.289 53.1634 251.004 52.9048C250.722 52.6463 250.344 52.517 249.87 52.517C249.456 52.517 249.093 52.6264 248.781 52.8452C248.473 53.0606 248.233 53.3688 248.06 53.7699C247.888 54.1676 247.802 54.6383 247.802 55.1818C247.802 55.7386 247.886 56.2192 248.055 56.6236C248.224 57.0279 248.463 57.3411 248.771 57.5632C249.083 57.7853 249.449 57.8963 249.87 57.8963C250.152 57.8963 250.407 57.8449 250.636 57.7422C250.868 57.6361 251.062 57.4853 251.217 57.2898C251.376 57.0942 251.487 56.8589 251.55 56.5838H252.997C252.944 57.0777 252.783 57.5185 252.515 57.9062C252.246 58.294 251.887 58.599 251.436 58.821C250.989 59.0431 250.463 59.1541 249.86 59.1541ZM258.018 59.1541C257.266 59.1541 256.618 58.9934 256.074 58.6719C255.534 58.3471 255.116 57.8913 254.821 57.3047C254.53 56.7147 254.384 56.0237 254.384 55.2315C254.384 54.4493 254.53 53.7599 254.821 53.1634C255.116 52.5668 255.527 52.1011 256.054 51.7663C256.585 51.4316 257.204 51.2642 257.914 51.2642C258.345 51.2642 258.762 51.3355 259.166 51.478C259.571 51.6205 259.934 51.8442 260.255 52.1491C260.577 52.4541 260.83 52.8501 261.016 53.3374C261.202 53.8213 261.294 54.4096 261.294 55.1023V55.6293H255.224V54.5156H259.838C259.838 54.1245 259.758 53.7782 259.599 53.4766C259.44 53.1716 259.216 52.9313 258.928 52.7557C258.643 52.58 258.308 52.4922 257.924 52.4922C257.506 52.4922 257.141 52.5949 256.83 52.8004C256.522 53.0026 256.283 53.2678 256.114 53.5959C255.948 53.9207 255.865 54.2737 255.865 54.6548V55.5249C255.865 56.0353 255.955 56.4695 256.134 56.8274C256.316 57.1854 256.57 57.4588 256.894 57.6477C257.219 57.8333 257.599 57.9261 258.033 57.9261C258.315 57.9261 258.572 57.8864 258.804 57.8068C259.036 57.724 259.236 57.6013 259.405 57.4389C259.574 57.2765 259.703 57.076 259.793 56.8374L261.2 57.0909C261.087 57.5052 260.885 57.8681 260.593 58.1797C260.305 58.4879 259.942 58.7282 259.505 58.9006C259.07 59.0696 258.575 59.1541 258.018 59.1541ZM262.631 56.9815H264.153C264.172 57.2931 264.313 57.5334 264.575 57.7024C264.84 57.8714 265.183 57.956 265.604 57.956C266.032 57.956 266.396 57.8648 266.698 57.6825C267 57.4969 267.15 57.2102 267.15 56.8224C267.15 56.5904 267.092 56.3883 266.976 56.2159C266.864 56.0402 266.703 55.9044 266.494 55.8082C266.289 55.7121 266.045 55.6641 265.763 55.6641H264.52V54.4957H265.763C266.184 54.4957 266.499 54.3996 266.708 54.2074C266.917 54.0152 267.021 53.7749 267.021 53.4865C267.021 53.175 266.908 52.9247 266.683 52.7358C266.461 52.5436 266.151 52.4474 265.753 52.4474C265.349 52.4474 265.013 52.5386 264.744 52.7209C264.476 52.8999 264.335 53.1319 264.322 53.4169H262.82C262.83 52.9893 262.959 52.6148 263.208 52.2933C263.46 51.9685 263.798 51.7166 264.222 51.5376C264.65 51.3554 265.135 51.2642 265.679 51.2642C266.246 51.2642 266.736 51.3554 267.15 51.5376C267.565 51.7199 267.885 51.9718 268.11 52.2933C268.339 52.6148 268.453 52.9844 268.453 53.402C268.453 53.8229 268.327 54.1676 268.075 54.4361C267.827 54.7012 267.502 54.8918 267.101 55.0078V55.0874C267.396 55.1072 267.658 55.1967 267.886 55.3558C268.115 55.5149 268.294 55.7254 268.423 55.9872C268.552 56.2491 268.617 56.5457 268.617 56.8771C268.617 57.3445 268.488 57.7488 268.229 58.0902C267.974 58.4316 267.619 58.6951 267.165 58.8807C266.715 59.063 266.199 59.1541 265.619 59.1541C265.056 59.1541 264.55 59.0663 264.103 58.8906C263.659 58.7116 263.306 58.4598 263.044 58.1349C262.785 57.8101 262.648 57.4257 262.631 56.9815ZM273.509 59.1541C272.793 59.1541 272.168 58.9901 271.634 58.6619C271.101 58.3338 270.686 57.8748 270.391 57.2848C270.096 56.6948 269.949 56.0054 269.949 55.2166C269.949 54.4245 270.096 53.7318 270.391 53.1385C270.686 52.5452 271.101 52.0845 271.634 51.7564C272.168 51.4283 272.793 51.2642 273.509 51.2642C274.225 51.2642 274.849 51.4283 275.383 51.7564C275.917 52.0845 276.331 52.5452 276.626 53.1385C276.921 53.7318 277.068 54.4245 277.068 55.2166C277.068 56.0054 276.921 56.6948 276.626 57.2848C276.331 57.8748 275.917 58.3338 275.383 58.6619C274.849 58.9901 274.225 59.1541 273.509 59.1541ZM273.514 57.9062C273.978 57.9062 274.362 57.7836 274.667 57.5384C274.972 57.2931 275.197 56.9666 275.343 56.5589C275.492 56.1513 275.567 55.7022 275.567 55.2116C275.567 54.7244 275.492 54.277 275.343 53.8693C275.197 53.4583 274.972 53.1286 274.667 52.88C274.362 52.6314 273.978 52.5071 273.514 52.5071C273.046 52.5071 272.658 52.6314 272.35 52.88C272.045 53.1286 271.818 53.4583 271.669 53.8693C271.523 54.277 271.45 54.7244 271.45 55.2116C271.45 55.7022 271.523 56.1513 271.669 56.5589C271.818 56.9666 272.045 57.2931 272.35 57.5384C272.658 57.7836 273.046 57.9062 273.514 57.9062ZM284.043 54.5405V55.8281H279.907V54.5405H284.043ZM280.324 51.3636V59H278.868V51.3636H280.324ZM285.082 51.3636V59H283.63V51.3636H285.082ZM287.877 61.8636C287.655 61.8636 287.453 61.8454 287.27 61.8089C287.088 61.7758 286.952 61.7393 286.863 61.6996L287.221 60.4815C287.492 60.5545 287.734 60.5859 287.946 60.576C288.159 60.5661 288.346 60.4865 288.508 60.3374C288.674 60.1882 288.82 59.9446 288.946 59.6065L289.13 59.0994L286.336 51.3636H287.927L289.861 57.2898H289.94L291.874 51.3636H293.47L290.323 60.0192C290.177 60.4169 289.991 60.7533 289.766 61.0284C289.541 61.3068 289.272 61.5156 288.961 61.6548C288.649 61.794 288.288 61.8636 287.877 61.8636Z" fill="#90FF3A"/>
<path d="M147 61.7841H170.256V62.7386H147V61.7841ZM170.252 61.7841H233.579V62.7386H170.252V61.7841ZM233.224 61.7841H245.648V62.7386H233.224V61.7841ZM245.644 61.7841H253.734V62.7386H245.644V61.7841ZM253.728 61.7841H262.091V62.7386H253.728V61.7841ZM262.084 61.7841H269.294V62.7386H262.084V61.7841ZM269.293 61.7841H286.206V62.7386H269.293V61.7841ZM285.938 61.7841H293.868V62.7386H285.938V61.7841Z" fill="#90FF3A"/>
<defs>
<filter id="filter0_d_1208_1095" x="8.24805" y="13.9473" width="10.8193" height="12.9355" filterUnits="userSpaceOnUse" color-interpolation-filters="sRGB">
<feFlood flood-opacity="0" result="BackgroundImageFix"/>
<feColorMatrix in="SourceAlpha" type="matrix" values="0 0 0 0 0 0 0 0 0 0 0 0 0 0 0 0 0 0 127 0" result="hardAlpha"/>
<feOffset dy="4"/>
<feGaussianBlur stdDeviation="2"/>
<feComposite in2="hardAlpha" operator="out"/>
<feColorMatrix type="matrix" values="0 0 0 0 0 0 0 0 0 0 0 0 0 0 0 0 0 0 0.25 0"/>
<feBlend mode="normal" in2="BackgroundImageFix" result="effect1_dropShadow_1208_1095"/>
<feBlend mode="normal" in="SourceGraphic" in2="effect1_dropShadow_1208_1095" result="shape"/>
</filter>
</defs>
</svg>
