<?xml version="1.0" encoding="utf-8"?>
<!-- Generator: Adobe Illustrator 27.2.0, SVG Export Plug-In . SVG Version: 6.00 Build 0)  -->
<svg version="1.1" id="Layer_1" xmlns="http://www.w3.org/2000/svg" xmlns:xlink="http://www.w3.org/1999/xlink" x="0px" y="0px"
	 width="340.4px" height="50px" viewBox="0 0 340.4 50" style="enable-background:new 0 0 340.4 50;" xml:space="preserve">
<style type="text/css">
	.st0{fill:#ED0000;}
</style>
<g>
	<g>
		<g id="MITSUBISHI_MOTORS_00000049199723505300138180000001665723237708847025_">
			<polygon points="6.5,35.4 6.5,41.6 5.1,41.6 5.1,37.3 3.3,40.4 1.4,37.3 1.4,41.6 0,41.6 0,35.4 1.8,35.4 3.3,37.9 4.7,35.4 			
				"/>
			<rect x="7.7" y="35.4" width="1.4" height="6.2"/>
			<polygon points="11.3,36.7 9.7,36.7 9.7,35.4 14.4,35.4 14.4,36.7 12.7,36.7 12.7,41.6 11.3,41.6 			"/>
			<path d="M14.9,41.5v-1.3c0.3,0.1,1,0.2,1.8,0.2c0.7,0,1.1-0.1,1.1-0.5c0-0.5-0.3-0.5-1.3-1c-1-0.4-1.7-0.8-1.7-1.9
				c0-1.3,0.8-1.7,2.3-1.7c0.8,0,1.4,0.1,1.7,0.1v1.3c-0.3,0-1-0.1-1.7-0.1c-0.8,0-1,0.1-1,0.4c0,0.3,0.5,0.5,1.1,0.8
				c1,0.5,1.9,0.8,1.9,2c0,1.2-0.8,1.8-2.4,1.8C16.1,41.7,15.5,41.6,14.9,41.5"/>
			<path d="M20,39.5v-4.1h1.4v4c0,0.7,0.4,0.9,1.1,0.9c0.7,0,1.1-0.2,1.1-0.9v-4h1.4v4.1c0,1.5-1,2.2-2.5,2.2C21,41.7,20,41,20,39.5
				"/>
			<path d="M26.1,35.4h2.7c1.3,0,2,0.5,2,1.6c0,0.9-0.5,1.2-1,1.4c0.6,0.2,1.1,0.5,1.1,1.5c0,1.1-0.7,1.7-2,1.7h-2.8V35.4z
				 M28.6,37.9c0.6,0,0.8-0.3,0.8-0.7c0-0.5-0.2-0.6-0.8-0.6h-1.1v1.3H28.6z M28.7,40.4c0.6,0,0.8-0.2,0.8-0.7
				c0-0.5-0.2-0.7-0.7-0.7h-1.3v1.4H28.7z"/>
			<rect x="31.8" y="35.4" width="1.4" height="6.2"/>
			<path d="M34.2,41.5v-1.3c0.3,0.1,1,0.2,1.8,0.2c0.7,0,1.1-0.1,1.1-0.5c0-0.5-0.3-0.5-1.3-1c-1-0.4-1.7-0.8-1.7-1.9
				c0-1.3,0.8-1.7,2.3-1.7c0.8,0,1.4,0.1,1.7,0.1v1.3c-0.3,0-1-0.1-1.7-0.1c-0.8,0-1,0.1-1,0.4c0,0.3,0.5,0.5,1.1,0.8
				c1,0.5,1.9,0.8,1.9,2c0,1.2-0.8,1.8-2.4,1.8C35.3,41.7,34.7,41.6,34.2,41.5"/>
			<polygon points="44.1,35.4 44.1,41.6 42.7,41.6 42.7,39.1 40.5,39.1 40.5,41.6 39.2,41.6 39.2,35.4 40.5,35.4 40.5,37.9 
				42.7,37.9 42.7,35.4 			"/>
			<rect x="45.2" y="35.4" width="1.4" height="6.2"/>
			<polygon points="13,43.7 13,49.9 11.6,49.9 11.6,45.6 9.7,48.7 7.9,45.6 7.9,49.9 6.5,49.9 6.5,43.7 8.3,43.7 9.7,46.2 
				11.2,43.7 			"/>
			<path d="M13.9,46.8c0-2.2,0.8-3.2,2.7-3.2c1.8,0,2.7,1,2.7,3.2c0,2.2-0.8,3.2-2.7,3.2C14.8,50,13.9,49,13.9,46.8 M17.8,46.8
				c0-1.3-0.2-1.9-1.2-1.9c-1,0-1.2,0.6-1.2,1.9c0,1.3,0.2,1.9,1.2,1.9C17.6,48.7,17.8,48.1,17.8,46.8"/>
			<polygon points="21.2,45 19.5,45 19.5,43.7 24.2,43.7 24.2,45 22.6,45 22.6,49.9 21.2,49.9 			"/>
			<path d="M24.5,46.8c0-2.2,0.8-3.2,2.7-3.2s2.7,1,2.7,3.2c0,2.2-0.8,3.2-2.7,3.2S24.5,49,24.5,46.8 M28.3,46.8
				c0-1.3-0.2-1.9-1.2-1.9s-1.2,0.6-1.2,1.9c0,1.3,0.2,1.9,1.2,1.9S28.3,48.1,28.3,46.8"/>
			<path d="M30.7,43.7h2.5c1.3,0,2.2,0.5,2.2,2c0,1-0.5,1.6-1.3,1.8l1.5,2.4h-1.6l-1.3-2.2h-0.6v2.2h-1.4V43.7z M33.2,46.5
				c0.6,0,0.8-0.3,0.8-0.8c0-0.5-0.2-0.8-0.8-0.8h-1v1.6H33.2z"/>
			<path d="M36.2,49.8v-1.3c0.3,0.1,1,0.2,1.8,0.2c0.7,0,1.1-0.1,1.1-0.5c0-0.5-0.3-0.5-1.3-1c-1-0.4-1.7-0.8-1.7-1.9
				c0-1.3,0.8-1.7,2.3-1.7c0.8,0,1.4,0.1,1.7,0.1V45c-0.3,0-1-0.1-1.7-0.1c-0.8,0-1,0.1-1,0.4c0,0.3,0.5,0.5,1.1,0.8
				c1,0.5,1.9,0.8,1.9,2c0,1.2-0.8,1.8-2.4,1.8C37.4,50,36.8,49.9,36.2,49.8"/>
		</g>
		<g id="Diamantelement_00000172402153541522216020000006782641786364012215_">
			<polygon class="st0" points="17.3,10.3 23.2,20.5 29.2,10.3 23.2,0 			"/>
			<polygon class="st0" points="35.1,20.5 23.2,20.5 29.2,30.8 41,30.8 			"/>
			<polygon class="st0" points="11.4,20.5 23.2,20.5 17.3,30.8 5.5,30.8 			"/>
		</g>
	</g>
	<g>
		<path d="M75.9,20.8c0,8.4-3.7,10.4-9.4,10.4h-7.6V10.4h7.6C72.2,10.4,75.9,12.4,75.9,20.8z M70.7,20.8c0-3.8-0.8-5.7-4.2-5.7h-2.6
			v11.5h2.6C70,26.5,70.7,24.5,70.7,20.8z"/>
		<path d="M78.5,10.4h5.1v20.8h-5.1V10.4z"/>
		<path d="M98.9,27.2h-7.6l-1.3,4h-5.2l7.2-20.8h6.3l7.1,20.8h-5.3L98.9,27.2z M97.6,22.9l-2.4-7.6l-2.4,7.6H97.6z"/>
		<path d="M106.9,10.4h6.5l4.8,7.7l4.6-7.7h6.6v20.8h-5.1V16.7l-6.1,9.4l-6.2-9.4v14.5h-5.1V10.4z"/>
		<path d="M131.9,20.8c0-8,2.6-10.7,9.1-10.7c6.5,0,9.1,2.7,9.1,10.7s-2.6,10.7-9.1,10.7C134.5,31.5,131.9,28.8,131.9,20.8z
			 M144.9,20.8c0-4.2-0.7-5.9-3.9-5.9c-3.2,0-3.9,1.8-3.9,5.9s0.7,6,3.9,6C144.2,26.7,144.9,24.9,144.9,20.8z"/>
		<path d="M152.7,10.4h4.4l7.6,11.9V10.4h5.1v20.8h-4.3l-7.7-11.8v11.8h-5.1V10.4z"/>
		<path d="M190.1,20.8c0,8.4-3.7,10.4-9.4,10.4h-7.6V10.4h7.6C186.4,10.4,190.1,12.4,190.1,20.8z M185,20.8c0-3.8-0.8-5.7-4.2-5.7
			h-2.6v11.5h2.6C184.2,26.5,185,24.5,185,20.8z"/>
		<path d="M197.1,30.5v-2.5c1.3,0.5,3.5,1.1,6.5,1.1c3.8,0,4.9-1.3,4.9-3.3c0-1.9-0.6-2.7-2.8-3.6l-4.4-1.7
			c-2.8-1.1-4.5-2.2-4.5-5.3c0-3.9,2.2-5.2,7.5-5.2c2.6,0,4.6,0.4,5.8,0.8v2.4c-1.3-0.5-3.3-0.9-5.8-0.9c-3.8,0-5,0.6-5,3
			c0,1.8,1.1,2.3,3.4,3.2l4,1.6c3.2,1.2,4.2,2.6,4.2,5.6c0,3.4-1.7,5.7-7.5,5.7C200.8,31.5,198.6,31.1,197.1,30.5z"/>
		<path d="M218.9,12.7h-6.8v-2.4h16.3l-0.6,2.4h-6.4v18.4h-2.5V12.7z"/>
		<path d="M240.5,25.6H231l-2.1,5.5h-2.6l8-20.8h2.9l8.1,20.8h-2.7L240.5,25.6z M239.7,23.4l-3.9-10.4l-3.9,10.4H239.7z"/>
		<path d="M263.3,31.2h-2.9l-5.5-8.2H250v8.2h-2.5V10.4h7.1c5,0,7.7,1.3,7.7,6.3c0,3.8-1.6,5.4-4.7,6L263.3,31.2z M259.7,16.7
			c0-3.4-1.7-4-5.4-4H250v8h4.3C258,20.7,259.7,20.1,259.7,16.7z"/>
		<path d="M272.5,20.8c0-7.5,2.2-10.7,8.8-10.7c1.8,0,4,0.2,5.8,0.8v2.4c-1.3-0.5-2.9-0.8-5.3-0.8c-5.3,0-6.7,1.9-6.7,8.3
			c0,6.4,1.3,8.3,6.7,8.3c2.4,0,3.9-0.4,5.3-0.8v2.4c-1.7,0.5-4,0.8-5.8,0.8C274.9,31.5,272.5,28.7,272.5,20.8z"/>
		<path d="M290.3,10.4h2.5v18.4h10.5l-0.5,2.4h-12.5V10.4z"/>
		<path d="M305.3,24.8V10.4h2.5v14.3c0,3.5,1.6,4.4,5.4,4.4c3.8,0,5.3-0.9,5.3-4.4V10.4h2.5v14.4c0,5.1-2.4,6.7-7.8,6.7
			C307.7,31.5,305.3,29.9,305.3,24.8z"/>
		<path d="M340.4,25.5c0,4.5-2.5,5.6-7.1,5.6h-8.2V10.4h7.6c4.8,0,7.1,1.2,7.1,5.2c0,3-1.3,4.2-3,4.7
			C338.7,20.7,340.4,21.9,340.4,25.5z M327.6,12.6v6.7h6c2.4,0,3.7-0.7,3.7-3.5c0-2.4-1.2-3.1-4.9-3.1H327.6z M337.8,25.3
			c0-2.9-1.1-3.9-4.2-3.9h-6.1v7.5h5.4C336.4,28.9,337.8,28.4,337.8,25.3z"/>
	</g>
</g>
</svg>
