<svg width="58" height="58" viewBox="0 0 58 58" fill="none" xmlns="http://www.w3.org/2000/svg">
<rect x="1.5" y="1.5" width="55" height="55" rx="2.5" stroke="#848383" stroke-width="3"/>
<path d="M6.08265 27V17.5455H9.45268C10.1882 17.5455 10.7976 17.6793 11.2808 17.9471C11.764 18.2148 12.1256 18.5811 12.3657 19.0458C12.6057 19.5075 12.7258 20.0276 12.7258 20.6062C12.7258 21.1879 12.6042 21.7111 12.3611 22.1758C12.121 22.6374 11.7578 23.0037 11.2716 23.2745C10.7884 23.5423 10.1805 23.6761 9.44806 23.6761H7.13059V22.4666H9.3188C9.78353 22.4666 10.1605 22.3866 10.4498 22.2266C10.7391 22.0634 10.9515 21.8419 11.0869 21.5618C11.2223 21.2817 11.29 20.9632 11.29 20.6062C11.29 20.2492 11.2223 19.9322 11.0869 19.6552C10.9515 19.3782 10.7376 19.1612 10.4452 19.0043C10.1559 18.8473 9.7743 18.7688 9.30034 18.7688H7.50914V27H6.08265ZM15.8246 17.5455V27H14.3981V17.5455H15.8246ZM25.7546 20.62H24.3143C24.2589 20.3123 24.1558 20.0414 24.005 19.8075C23.8542 19.5736 23.6695 19.3751 23.451 19.212C23.2325 19.0489 22.9878 18.9258 22.717 18.8427C22.4492 18.7596 22.1645 18.718 21.8629 18.718C21.3182 18.718 20.8304 18.855 20.3995 19.1289C19.9717 19.4028 19.6332 19.8045 19.3839 20.3338C19.1377 20.8632 19.0146 21.5095 19.0146 22.2727C19.0146 23.0421 19.1377 23.6915 19.3839 24.2209C19.6332 24.7502 19.9732 25.1503 20.4041 25.4212C20.835 25.692 21.3197 25.8274 21.8583 25.8274C22.1568 25.8274 22.44 25.7874 22.7077 25.7074C22.9786 25.6243 23.2232 25.5027 23.4418 25.3427C23.6603 25.1826 23.8449 24.9872 23.9957 24.7564C24.1496 24.5225 24.2558 24.2547 24.3143 23.9531L25.7546 23.9577C25.6777 24.4225 25.5284 24.8503 25.3068 25.2411C25.0883 25.6289 24.8067 25.9644 24.462 26.2475C24.1204 26.5276 23.7295 26.7446 23.2894 26.8984C22.8493 27.0523 22.3692 27.1293 21.8491 27.1293C21.0304 27.1293 20.301 26.9354 19.6609 26.5476C19.0207 26.1567 18.516 25.5981 18.1467 24.8718C17.7804 24.1455 17.5973 23.2791 17.5973 22.2727C17.5973 21.2633 17.782 20.3969 18.1513 19.6737C18.5206 18.9473 19.0253 18.3903 19.6655 18.0025C20.3056 17.6116 21.0335 17.4162 21.8491 17.4162C22.3507 17.4162 22.8185 17.4885 23.2525 17.6332C23.6895 17.7747 24.0819 17.984 24.4297 18.261C24.7775 18.5349 25.0652 18.8704 25.293 19.2674C25.5207 19.6613 25.6746 20.1122 25.7546 20.62ZM27.4616 27V17.5455H28.8881V22.0604H29.0035L32.969 17.5455H34.7648L30.9516 21.8018L34.7787 27H33.0613L30.0052 22.7759L28.8881 24.0593V27H27.4616ZM42.1743 17.5455H43.6054V23.7638C43.6054 24.4255 43.45 25.0118 43.1391 25.5227C42.8283 26.0305 42.3912 26.4306 41.828 26.723C41.2648 27.0123 40.6047 27.157 39.8476 27.157C39.0935 27.157 38.4349 27.0123 37.8717 26.723C37.3085 26.4306 36.8715 26.0305 36.5606 25.5227C36.2498 25.0118 36.0944 24.4255 36.0944 23.7638V17.5455H37.5209V23.6484C37.5209 24.0762 37.6147 24.4563 37.8025 24.7887C37.9933 25.1211 38.2626 25.3827 38.6104 25.5735C38.9581 25.7612 39.3705 25.8551 39.8476 25.8551C40.3277 25.8551 40.7416 25.7612 41.0894 25.5735C41.4403 25.3827 41.708 25.1211 41.8927 24.7887C42.0804 24.4563 42.1743 24.0762 42.1743 23.6484V17.5455ZM45.6793 27V17.5455H49.0494C49.7849 17.5455 50.3943 17.6793 50.8775 17.9471C51.3607 18.2148 51.7223 18.5811 51.9624 19.0458C52.2024 19.5075 52.3224 20.0276 52.3224 20.6062C52.3224 21.1879 52.2009 21.7111 51.9577 22.1758C51.7177 22.6374 51.3545 23.0037 50.8683 23.2745C50.3851 23.5423 49.7772 23.6761 49.0447 23.6761H46.7273V22.4666H48.9155C49.3802 22.4666 49.7572 22.3866 50.0465 22.2266C50.3358 22.0634 50.5482 21.8419 50.6836 21.5618C50.819 21.2817 50.8867 20.9632 50.8867 20.6062C50.8867 20.2492 50.819 19.9322 50.6836 19.6552C50.5482 19.3782 50.3343 19.1612 50.0419 19.0043C49.7526 18.8473 49.371 18.7688 48.897 18.7688H47.1058V27H45.6793ZM12.5218 36.1108H11.1923C11.1412 35.8267 11.046 35.5767 10.9068 35.3608C10.7676 35.1449 10.5971 34.9616 10.3954 34.8111C10.1937 34.6605 9.96786 34.5469 9.71786 34.4702C9.4707 34.3935 9.20792 34.3551 8.92951 34.3551C8.42667 34.3551 7.97639 34.4815 7.57866 34.7344C7.18377 34.9872 6.87127 35.358 6.64116 35.8466C6.41388 36.3352 6.30025 36.9318 6.30025 37.6364C6.30025 38.3466 6.41388 38.946 6.64116 39.4347C6.87127 39.9233 7.18519 40.2926 7.58292 40.5426C7.98065 40.7926 8.42809 40.9176 8.92525 40.9176C9.20082 40.9176 9.46218 40.8807 9.70934 40.8068C9.95934 40.7301 10.1852 40.6179 10.3869 40.4702C10.5886 40.3224 10.7591 40.142 10.8983 39.929C11.0403 39.7131 11.1383 39.4659 11.1923 39.1875L12.5218 39.1918C12.4508 39.6207 12.313 40.0156 12.1085 40.3764C11.9068 40.7344 11.6468 41.044 11.3287 41.3054C11.0133 41.5639 10.6525 41.7642 10.2463 41.9062C9.84002 42.0483 9.39684 42.1193 8.91673 42.1193C8.16104 42.1193 7.48775 41.9403 6.89684 41.5824C6.30593 41.2216 5.84002 40.706 5.49911 40.0355C5.16104 39.3651 4.99201 38.5653 4.99201 37.6364C4.99201 36.7045 5.16246 35.9048 5.50337 35.2372C5.84428 34.5668 6.31019 34.0526 6.9011 33.6946C7.49201 33.3338 8.16389 33.1534 8.91673 33.1534C9.37979 33.1534 9.81161 33.2202 10.2122 33.3537C10.6156 33.4844 10.9778 33.6776 11.2988 33.9332C11.6199 34.1861 11.8855 34.4957 12.0957 34.8622C12.3059 35.2259 12.448 35.642 12.5218 36.1108ZM14.0975 42V33.2727H19.5691V34.4062H15.4142V37.0653H19.2836V38.1946H15.4142V40.8665H19.6202V42H14.0975ZM21.3279 42V33.2727H24.4387C25.1177 33.2727 25.6802 33.3963 26.1262 33.6435C26.5723 33.8906 26.9061 34.2287 27.1277 34.6577C27.3493 35.0838 27.4601 35.5639 27.4601 36.098C27.4601 36.6349 27.3478 37.1179 27.1234 37.5469C26.9018 37.973 26.5666 38.3111 26.1177 38.5611C25.6717 38.8082 25.1106 38.9318 24.4345 38.9318H22.2953V37.8153H24.3152C24.7441 37.8153 25.0922 37.7415 25.3592 37.5938C25.6262 37.4432 25.8223 37.2386 25.9473 36.9801C26.0723 36.7216 26.1348 36.4276 26.1348 36.098C26.1348 35.7685 26.0723 35.4759 25.9473 35.2202C25.8223 34.9645 25.6248 34.7642 25.3549 34.6193C25.0879 34.4744 24.7356 34.402 24.2981 34.402H22.6447V42H21.3279ZM29.0037 42V33.2727H32.1998C32.8191 33.2727 33.3319 33.375 33.7381 33.5795C34.1444 33.7812 34.4483 34.0554 34.65 34.402C34.8517 34.7457 34.9526 35.1335 34.9526 35.5653C34.9526 35.929 34.8858 36.2358 34.7523 36.4858C34.6188 36.733 34.4398 36.9318 34.2154 37.0824C33.9938 37.2301 33.7495 37.3381 33.4824 37.4062V37.4915C33.7722 37.5057 34.0549 37.5994 34.3304 37.7727C34.6088 37.9432 34.839 38.1861 35.0208 38.5014C35.2026 38.8168 35.2935 39.2003 35.2935 39.652C35.2935 40.098 35.1884 40.4986 34.9782 40.8537C34.7708 41.206 34.4498 41.4858 34.0151 41.6932C33.5804 41.8977 33.025 42 32.3489 42H29.0037ZM30.3205 40.8707H32.2211C32.8517 40.8707 33.3034 40.7486 33.5762 40.5043C33.8489 40.2599 33.9853 39.9545 33.9853 39.5881C33.9853 39.3125 33.9157 39.0597 33.7765 38.8295C33.6373 38.5994 33.4384 38.4162 33.1799 38.2798C32.9242 38.1435 32.6202 38.0753 32.2679 38.0753H30.3205V40.8707ZM30.3205 37.0483H32.0847C32.3801 37.0483 32.6458 36.9915 32.8816 36.8778C33.1202 36.7642 33.3091 36.6051 33.4483 36.4006C33.5904 36.1932 33.6614 35.9489 33.6614 35.6676C33.6614 35.3068 33.535 35.0043 33.2821 34.7599C33.0293 34.5156 32.6415 34.3935 32.1188 34.3935H30.3205V37.0483ZM36.8553 33.2727H38.1593V39.6818H38.2402L42.6806 33.2727H43.8993V42H42.5826V35.5994H42.5016L38.0698 42H36.8553V33.2727ZM53.0687 36.1108H51.7392C51.688 35.8267 51.5929 35.5767 51.4537 35.3608C51.3145 35.1449 51.144 34.9616 50.9423 34.8111C50.7406 34.6605 50.5147 34.5469 50.2647 34.4702C50.0176 34.3935 49.7548 34.3551 49.4764 34.3551C48.9735 34.3551 48.5233 34.4815 48.1255 34.7344C47.7306 34.9872 47.4181 35.358 47.188 35.8466C46.9608 36.3352 46.8471 36.9318 46.8471 37.6364C46.8471 38.3466 46.9608 38.946 47.188 39.4347C47.4181 39.9233 47.7321 40.2926 48.1298 40.5426C48.5275 40.7926 48.975 40.9176 49.4721 40.9176C49.7477 40.9176 50.0091 40.8807 50.2562 40.8068C50.5062 40.7301 50.7321 40.6179 50.9338 40.4702C51.1355 40.3224 51.3059 40.142 51.4451 39.929C51.5872 39.7131 51.6852 39.4659 51.7392 39.1875L53.0687 39.1918C52.9977 39.6207 52.8599 40.0156 52.6554 40.3764C52.4537 40.7344 52.1937 41.044 51.8755 41.3054C51.5602 41.5639 51.1994 41.7642 50.7931 41.9062C50.3869 42.0483 49.9437 42.1193 49.4636 42.1193C48.7079 42.1193 48.0346 41.9403 47.4437 41.5824C46.8528 41.2216 46.3869 40.706 46.046 40.0355C45.7079 39.3651 45.5389 38.5653 45.5389 37.6364C45.5389 36.7045 45.7093 35.9048 46.0502 35.2372C46.3912 34.5668 46.8571 34.0526 47.448 33.6946C48.0389 33.3338 48.7108 33.1534 49.4636 33.1534C49.9267 33.1534 50.3585 33.2202 50.7591 33.3537C51.1625 33.4844 51.5247 33.6776 51.8457 33.9332C52.1667 34.1861 52.4324 34.4957 52.6426 34.8622C52.8528 35.2259 52.9949 35.642 53.0687 36.1108Z" fill="#848383"/>
</svg>
