<svg width="30" height="30" viewBox="0 0 30 30" fill="none" xmlns="http://www.w3.org/2000/svg">
<path d="M29.5 15C29.5 23.0081 23.0081 29.5 15 29.5C6.99187 29.5 0.5 23.0081 0.5 15C0.5 6.99187 6.99187 0.5 15 0.5C23.0081 0.5 29.5 6.99187 29.5 15Z" fill="#05BC52" stroke="black"/>
<path d="M3.90026 15.8992V17.6992C3.90026 17.6992 4.5404 19.3903 5.10026 20.3992C5.87345 21.7926 7.50026 23.6992 7.50026 23.6992L10.3136 26.2568L12.9003 23.9992L15.3003 22.7992L17.1003 22.4992H20.8414L22.2003 20.3992L24.6003 14.0992L24.9003 11.6992C14.2103 18.6612 6.9897 17.4016 3.90026 15.8992Z" fill="black"/>
<path d="M10.3136 26.2568L7.50026 23.6992C7.50026 23.6992 5.87345 21.7926 5.10026 20.3992C4.5404 19.3903 3.90026 17.6992 3.90026 17.6992V15.8992C6.9897 17.4016 14.2103 18.6612 24.9003 11.6992L24.6003 14.0992L22.2003 20.3992L20.8414 22.4992M10.3136 26.2568L10.8003 26.6992L13.8003 27.8992H15.9003L18.9003 25.4992L20.8414 22.4992M10.3136 26.2568L12.9003 23.9992L15.3003 22.7992L17.1003 22.4992H20.8414" stroke="black" stroke-linejoin="round"/>
<path d="M16.1998 8.70039L11.6998 12.3004L15.8998 9.90039L17.3998 9.60039H18.5998L18.8998 10.5004L19.4998 11.1004L20.0998 10.8004V9.30039L19.1998 8.40039H17.0998L16.1998 8.70039Z" fill="black" stroke="black" stroke-width="0.5" stroke-linejoin="round"/>
<path d="M8.09917 2.09922C10.9792 4.49922 11.3992 4.59922 11.3992 4.49922C10.4392 1.61922 9.99917 1.19922 9.89917 1.19922L8.09917 2.09922Z" fill="black"/>
<path d="M14.0992 6.59922C16.4992 4.19922 17.8992 3.59922 18.2992 3.59922H19.7992C21.9592 6.23922 22.2992 7.09922 22.1992 7.19922L19.1992 5.39922H16.7992L14.0992 6.59922Z" fill="black"/>
<path d="M8.09917 2.09922C10.9792 4.49922 11.3992 4.59922 11.3992 4.49922C10.4392 1.61922 9.99917 1.19922 9.89917 1.19922L8.09917 2.09922Z" stroke="black" stroke-linejoin="round"/>
<path d="M14.0992 6.59922C16.4992 4.19922 17.8992 3.59922 18.2992 3.59922H19.7992C21.9592 6.23922 22.2992 7.09922 22.1992 7.19922L19.1992 5.39922H16.7992L14.0992 6.59922Z" stroke="black" stroke-linejoin="round"/>
<path d="M6.75935 14.0696C7.46502 14.194 8.14073 13.7668 8.66094 13.1054C9.18848 12.4347 9.60392 11.4703 9.79755 10.3722C9.99117 9.2741 9.93063 8.22578 9.6643 7.41507C9.40168 6.61564 8.91282 5.98312 8.20715 5.85869C7.50148 5.73426 6.82577 6.16143 6.30556 6.82283C5.77802 7.49356 5.36258 8.45795 5.16895 9.55606C4.97533 10.6542 5.03587 11.7025 5.3022 12.5132C5.56482 13.3126 6.05368 13.9451 6.75935 14.0696Z" stroke="black" stroke-width="0.5"/>
<g filter="url(#filter0_d_1530_1484)">
<ellipse cx="8.19475" cy="9.84977" rx="0.810626" ry="1.5" transform="rotate(11 8.19475 9.84977)" fill="black"/>
</g>
<defs>
<filter id="filter0_d_1530_1484" x="3.34888" y="8.36914" width="9.69174" height="10.9612" filterUnits="userSpaceOnUse" color-interpolation-filters="sRGB">
<feFlood flood-opacity="0" result="BackgroundImageFix"/>
<feColorMatrix in="SourceAlpha" type="matrix" values="0 0 0 0 0 0 0 0 0 0 0 0 0 0 0 0 0 0 127 0" result="hardAlpha"/>
<feOffset dy="4"/>
<feGaussianBlur stdDeviation="2"/>
<feComposite in2="hardAlpha" operator="out"/>
<feColorMatrix type="matrix" values="0 0 0 0 0 0 0 0 0 0 0 0 0 0 0 0 0 0 0.25 0"/>
<feBlend mode="normal" in2="BackgroundImageFix" result="effect1_dropShadow_1530_1484"/>
<feBlend mode="normal" in="SourceGraphic" in2="effect1_dropShadow_1530_1484" result="shape"/>
</filter>
</defs>
</svg>
