<svg width="50" height="50" viewBox="0 0 50 50" fill="none" xmlns="http://www.w3.org/2000/svg">
<path d="M49.5 25C49.5 38.531 38.531 49.5 25 49.5C11.469 49.5 0.5 38.531 0.5 25C0.5 11.469 11.469 0.5 25 0.5C38.531 0.5 49.5 11.469 49.5 25Z" fill="#05BC52" stroke="black"/>
<path d="M6.5 26.5V29.5C6.5 29.5 7.56689 32.3184 8.5 34C9.78864 36.3223 12.5 39.5 12.5 39.5L17.1889 43.7626L21.5 40L25.5 38L28.5 37.5H34.7353L37 34L41 23.5L41.5 19.5C23.6834 31.1033 11.6491 29.0039 6.5 26.5Z" fill="black"/>
<path d="M17.1889 43.7626L12.5 39.5C12.5 39.5 9.78864 36.3223 8.5 34C7.56689 32.3184 6.5 29.5 6.5 29.5V26.5C11.6491 29.0039 23.6834 31.1033 41.5 19.5L41 23.5L37 34L34.7353 37.5M17.1889 43.7626L18 44.5L23 46.5H26.5L31.5 42.5L34.7353 37.5M17.1889 43.7626L21.5 40L25.5 38L28.5 37.5H34.7353" stroke="black" stroke-linejoin="round"/>
<path d="M27 14.5L19.5 20.5L26.5 16.5L29 16H31L31.5 17.5L32.5 18.5L33.5 18V15.5L32 14H28.5L27 14.5Z" fill="black" stroke="black" stroke-width="0.5" stroke-linejoin="round"/>
<path d="M13.5 3.5C18.3 7.5 19 7.66667 19 7.5C17.4 2.7 16.6667 2 16.5 2L13.5 3.5Z" fill="black"/>
<path d="M23.5 11C27.5 7 29.8333 6 30.5 6H33C36.6 10.4 37.1667 11.8333 37 12L32 9H28L23.5 11Z" fill="black"/>
<path d="M13.5 3.5C18.3 7.5 19 7.66667 19 7.5C17.4 2.7 16.6667 2 16.5 2L13.5 3.5Z" stroke="black" stroke-linejoin="round"/>
<path d="M23.5 11C27.5 7 29.8333 6 30.5 6H33C36.6 10.4 37.1667 11.8333 37 12L32 9H28L23.5 11Z" stroke="black" stroke-linejoin="round"/>
<path d="M11.2953 23.2845C12.3817 23.4761 13.4528 22.8217 14.3047 21.7387C15.1638 20.6464 15.847 19.066 16.1659 17.2574C16.4848 15.4488 16.3833 13.7301 15.9496 12.4098C15.5196 11.1008 14.7368 10.1195 13.6504 9.92797C12.564 9.73641 11.4928 10.3908 10.641 11.4738C9.78188 12.5661 9.09871 14.1465 8.77981 15.9551C8.46091 17.7636 8.56235 19.4824 8.99609 20.8027C9.42612 22.1117 10.2089 23.0929 11.2953 23.2845Z" stroke="black" stroke-width="0.5"/>
<g filter="url(#filter0_d_1191_911)">
<ellipse cx="13.6578" cy="16.415" rx="1.35104" ry="2.5" transform="rotate(11 13.6578 16.415)" fill="black"/>
</g>
<defs>
<filter id="filter0_d_1191_911" x="8.24805" y="13.9473" width="10.8193" height="12.9355" filterUnits="userSpaceOnUse" color-interpolation-filters="sRGB">
<feFlood flood-opacity="0" result="BackgroundImageFix"/>
<feColorMatrix in="SourceAlpha" type="matrix" values="0 0 0 0 0 0 0 0 0 0 0 0 0 0 0 0 0 0 127 0" result="hardAlpha"/>
<feOffset dy="4"/>
<feGaussianBlur stdDeviation="2"/>
<feComposite in2="hardAlpha" operator="out"/>
<feColorMatrix type="matrix" values="0 0 0 0 0 0 0 0 0 0 0 0 0 0 0 0 0 0 0.25 0"/>
<feBlend mode="normal" in2="BackgroundImageFix" result="effect1_dropShadow_1191_911"/>
<feBlend mode="normal" in="SourceGraphic" in2="effect1_dropShadow_1191_911" result="shape"/>
</filter>
</defs>
</svg>
