<svg width="150" height="25" viewBox="0 0 150 25" fill="none" xmlns="http://www.w3.org/2000/svg">
<path d="M37.5181 19V5.18182H42.4435C43.5141 5.18182 44.4025 5.36624 45.1087 5.73508C45.8194 6.10393 46.3501 6.61446 46.701 7.26669C47.0518 7.91442 47.2273 8.66335 47.2273 9.51349C47.2273 10.3591 47.0496 11.1036 46.6942 11.7468C46.3434 12.3855 45.8126 12.8826 45.1019 13.2379C44.3957 13.5933 43.5073 13.771 42.4368 13.771H38.7056V11.9762H42.2479C42.9226 11.9762 43.4714 11.8795 43.8942 11.6861C44.3215 11.4927 44.6341 11.2115 44.832 10.8427C45.0299 10.4738 45.1289 10.0308 45.1289 9.51349C45.1289 8.99171 45.0277 8.53965 44.8253 8.15732C44.6274 7.77498 44.3147 7.4826 43.8874 7.28018C43.4646 7.07327 42.9091 6.96982 42.2209 6.96982H39.603V19H37.5181ZM44.3395 12.7656L47.7536 19H45.3786L42.032 12.7656H44.3395ZM65.9474 12.0909C65.9474 13.5663 65.6775 14.8348 65.1377 15.8963C64.598 16.9534 63.858 17.7675 62.9179 18.3388C61.9823 18.9055 60.9185 19.1889 59.7265 19.1889C58.53 19.1889 57.4617 18.9055 56.5216 18.3388C55.586 17.7675 54.8483 16.9511 54.3086 15.8896C53.7688 14.828 53.4989 13.5618 53.4989 12.0909C53.4989 10.6155 53.7688 9.34931 54.3086 8.29226C54.8483 7.2307 55.586 6.41655 56.5216 5.84979C57.4617 5.27853 58.53 4.9929 59.7265 4.9929C60.9185 4.9929 61.9823 5.27853 62.9179 5.84979C63.858 6.41655 64.598 7.2307 65.1377 8.29226C65.6775 9.34931 65.9474 10.6155 65.9474 12.0909ZM63.8828 12.0909C63.8828 10.9664 63.7006 10.0195 63.3363 9.25035C62.9764 8.47668 62.4816 7.89193 61.8519 7.49609C61.2266 7.09576 60.5182 6.8956 59.7265 6.8956C58.9304 6.8956 58.2197 7.09576 57.5944 7.49609C56.9692 7.89193 56.4744 8.47668 56.11 9.25035C55.7502 10.0195 55.5703 10.9664 55.5703 12.0909C55.5703 13.2154 55.7502 14.1645 56.11 14.9382C56.4744 15.7074 56.9692 16.2921 57.5944 16.6925C58.2197 17.0883 58.9304 17.2862 59.7265 17.2862C60.5182 17.2862 61.2266 17.0883 61.8519 16.6925C62.4816 16.2921 62.9764 15.7074 63.3363 14.9382C63.7006 14.1645 63.8828 13.2154 63.8828 12.0909ZM72.3691 19V17.6101L79.6358 6.97656H72.3084V5.18182H82.1863V6.57173L74.9196 17.2053H82.247V19H72.3691ZM89.0415 19V5.18182H97.7049V6.97656H91.1264V11.1868H97.2528V12.9748H91.1264V17.2053H97.7858V19H89.0415ZM103.988 6.97656V5.18182H114.683V6.97656H110.371V19H108.293V6.97656H103.988ZM121.226 19V5.18182H123.311V11.7805H123.479L129.275 5.18182H131.9L126.327 11.4027L131.92 19H129.41L124.943 12.8263L123.311 14.7021V19H121.226ZM139.19 19H136.977L141.95 5.18182H144.358L149.331 19H147.118L143.211 7.69176H143.104L139.19 19ZM139.561 13.5888H146.74V15.343H139.561V13.5888Z" fill="black"/>
<path d="M24.5 12.5C24.5 19.1274 19.1274 24.5 12.5 24.5C5.87258 24.5 0.5 19.1274 0.5 12.5C0.5 5.87258 5.87258 0.5 12.5 0.5C19.1274 0.5 24.5 5.87258 24.5 12.5Z" fill="#05BC52" stroke="black"/>
<path d="M3.25 13.2498V14.7498C3.25 14.7498 3.78345 16.159 4.25 16.9998C4.89432 18.1609 6.25 19.7498 6.25 19.7498L8.59444 21.8811L10.75 19.9998L12.75 18.9998L14.25 18.7498H17.3676L18.5 16.9998L20.5 11.7498L20.75 9.74976C11.8417 15.5514 5.82453 14.5017 3.25 13.2498Z" fill="black"/>
<path d="M8.59444 21.8811L6.25 19.7498C6.25 19.7498 4.89432 18.1609 4.25 16.9998C3.78345 16.159 3.25 14.7498 3.25 14.7498V13.2498C5.82453 14.5017 11.8417 15.5514 20.75 9.74976L20.5 11.7498L18.5 16.9998L17.3676 18.7498M8.59444 21.8811L9 22.2498L11.5 23.2498H13.25L15.75 21.2498L17.3676 18.7498M8.59444 21.8811L10.75 19.9998L12.75 18.9998L14.25 18.7498H17.3676" stroke="black" stroke-linejoin="round"/>
<path d="M13.5 7.25L9.75 10.25L13.25 8.25L14.5 8H15.5L15.75 8.75L16.25 9.25L16.75 9V7.75L16 7H14.25L13.5 7.25Z" fill="black" stroke="black" stroke-width="0.5" stroke-linejoin="round"/>
<path d="M7 2C9.4 4 9.75 3.83338 9.75 3.75005C8.95 1.35004 8.58333 1.5 8.5 1.5L7 2Z" fill="black"/>
<path d="M12 5.50005C14 3.50005 15.1667 3.00005 15.5 3.00005H16.75C18.55 5.20005 18.8333 5.91671 18.75 6.00005L16.25 4.50005H14.25L12 5.50005Z" fill="black"/>
<path d="M7 2C9.4 4 9.75 3.83338 9.75 3.75005C8.95 1.35004 8.58333 1.5 8.5 1.5L7 2Z" stroke="black" stroke-linejoin="round"/>
<path d="M12 5.50005C14 3.50005 15.1667 3.00005 15.5 3.00005H16.75C18.55 5.20005 18.8333 5.91671 18.75 6.00005L16.25 4.50005H14.25L12 5.50005Z" stroke="black" stroke-linejoin="round"/>
<path d="M5.62593 11.7653C6.23642 11.873 6.81327 11.5026 7.25058 10.9466C7.69522 10.3813 8.04373 9.5709 8.20603 8.65041C8.36834 7.72992 8.31803 6.84921 8.09355 6.16589C7.87278 5.49386 7.45739 4.94853 6.8469 4.84089C6.23641 4.73324 5.65957 5.10361 5.22226 5.65961C4.77761 6.22494 4.42911 7.03533 4.2668 7.95582C4.1045 8.87631 4.15481 9.75703 4.37929 10.4403C4.60006 11.1124 5.01544 11.6577 5.62593 11.7653Z" stroke="black" stroke-width="0.5"/>
<g filter="url(#filter0_d_1576_2)">
<ellipse cx="6.8289" cy="8.20774" rx="0.675521" ry="1.25" transform="rotate(11 6.8289 8.20774)" fill="black"/>
</g>
<defs>
<filter id="filter0_d_1576_2" x="2.124" y="6.97388" width="9.40978" height="10.4678" filterUnits="userSpaceOnUse" color-interpolation-filters="sRGB">
<feFlood flood-opacity="0" result="BackgroundImageFix"/>
<feColorMatrix in="SourceAlpha" type="matrix" values="0 0 0 0 0 0 0 0 0 0 0 0 0 0 0 0 0 0 127 0" result="hardAlpha"/>
<feOffset dy="4"/>
<feGaussianBlur stdDeviation="2"/>
<feComposite in2="hardAlpha" operator="out"/>
<feColorMatrix type="matrix" values="0 0 0 0 0 0 0 0 0 0 0 0 0 0 0 0 0 0 0.25 0"/>
<feBlend mode="normal" in2="BackgroundImageFix" result="effect1_dropShadow_1576_2"/>
<feBlend mode="normal" in="SourceGraphic" in2="effect1_dropShadow_1576_2" result="shape"/>
</filter>
</defs>
</svg>
